<?xml version="1.0" standalone="no"?>
<!DOCTYPE svg PUBLIC "-//W3C//DTD SVG 1.1//EN" "http://www.w3.org/Graphics/SVG/1.1/DTD/svg11.dtd" >
<svg xmlns="http://www.w3.org/2000/svg" xmlns:xlink="http://www.w3.org/1999/xlink" version="1.1">
<metadata></metadata>
<defs>
<font id="preloextrabold" horiz-adv-x="1085" >
<font-face units-per-em="2048" ascent="1536" descent="-512" />
<missing-glyph horiz-adv-x="368" />
<glyph unicode="&#xfb01;" horiz-adv-x="1140" d="M25 807v199l131 18v45q0 83 20.5 146t69.5 114t139.5 78t220.5 27q85 0 215.5 -20.5t190.5 -43.5l-29 -217q-60 13 -161.5 25t-178.5 12q-51 0 -86 -7.5t-53.5 -17.5t-28 -28.5t-11 -31.5t-1.5 -36v-45h604v-1024h-307v807h-297v-807h-307v807h-131z" />
<glyph unicode="&#xfb02;" horiz-adv-x="1140" d="M25 807v199l131 18v45q0 83 20.5 146t69.5 114t139.5 78t220.5 27q139 0 244 -27h217v-1407h-307v1174q-63 16 -117 16q-51 0 -86 -7.5t-53.5 -17t-28 -28t-11 -32t-1.5 -36.5v-45h205v-217h-205v-807h-307v807h-131z" />
<glyph unicode="&#xfb03;" horiz-adv-x="1744" d="M25 807v199l131 18v98q0 160 78.5 236t257.5 76q74 0 186 -19l-27 -235q-58 10 -88 10q-56 0 -78 -29.5t-22 -91.5v-45h297v45q0 83 20.5 146t69.5 114t139.5 78t220.5 27q85 0 215.5 -20.5t190.5 -43.5l-29 -217q-60 13 -161.5 25t-178.5 12q-51 0 -86 -7.5t-53.5 -17.5 t-28 -28.5t-11 -31.5t-1.5 -36v-45h604v-1024h-307v807h-297v-807h-307v807h-297v-807h-307v807h-131z" />
<glyph unicode="&#xfb04;" horiz-adv-x="1744" d="M25 807v199l131 18v98q0 160 78.5 236t257.5 76q74 0 186 -19l-27 -235q-58 10 -88 10q-56 0 -78 -29.5t-22 -91.5v-45h297v45q0 83 20.5 146t69.5 114t139.5 78t220.5 27q139 0 244 -27h217v-1407h-307v1174q-63 16 -117 16q-51 0 -86 -7.5t-53.5 -17t-28 -28t-11 -32 t-1.5 -36.5v-45h205v-217h-205v-807h-307v807h-297v-807h-307v807h-131z" />
<glyph horiz-adv-x="0" />
<glyph horiz-adv-x="682" />
<glyph unicode=" "  horiz-adv-x="368" />
<glyph unicode="&#x09;" horiz-adv-x="368" />
<glyph unicode="&#xa0;" horiz-adv-x="368" />
<glyph unicode="!" horiz-adv-x="454" d="M74 0v311h307v-311h-307zM74 1393h307l-19 -944h-270z" />
<glyph unicode="&#x22;" horiz-adv-x="864" d="M74 1393h307l-35 -330h-235zM483 1393h308l-35 -330h-236z" />
<glyph unicode="#" horiz-adv-x="1253" d="M74 197l20 200h205l25 230h-205l20 200h205l23 197h217l-23 -197h195l22 197h217l-22 -197h205l-19 -200h-205l-26 -230h205l-19 -200h-205l-22 -197h-217l20 197h-194l-21 -197h-217l21 197h-205zM516 397h195l24 230h-194z" />
<glyph unicode="$" horiz-adv-x="1228" d="M74 59l55 271q254 -62 485 -62q97 0 147 33.5t50 95.5q0 27 -16 49.5t-38.5 37t-59 29t-65 22.5t-70.5 19t-62 17q-406 122 -406 443q0 97 36 172t100.5 121.5t146.5 72.5t182 31v186h129v-186q125 -7 203 -22t225 -56l-72 -270q-253 61 -430 61q-92 0 -134 -33t-42 -85 q0 -17 5.5 -31.5t18.5 -27t24.5 -22.5t34.5 -19.5t38 -15.5t44.5 -14.5t43 -12t46 -11.5t42.5 -10q97 -23 171 -57t131.5 -84t87.5 -121t30 -160q0 -199 -130 -312t-337 -124v-189h-129v187q-260 8 -485 77z" />
<glyph unicode="%" horiz-adv-x="1556" d="M70 1102q0 145 77.5 227t221.5 82q146 0 223.5 -82t77.5 -227q0 -143 -78 -225t-223 -82q-144 0 -221.5 82t-77.5 225zM260 1102q0 -154 109 -154q110 0 110 154q0 155 -110 155q-109 0 -109 -155zM299 0l758 1393h200l-757 -1393h-201zM887 291q0 143 78 225t223 82 q144 0 221.5 -82t77.5 -225q0 -145 -77.5 -227t-221.5 -82q-146 0 -223.5 82t-77.5 227zM1077 291q0 -156 111 -156q108 0 108 156q0 153 -108 153q-111 0 -111 -153z" />
<glyph unicode="&#x26;" horiz-adv-x="1443" d="M74 371q0 111 64 201.5t239 193.5q-75 93 -107 157.5t-32 133.5q0 114 63 197t158 121t207 38q186 0 291.5 -93t105.5 -257q0 -54 -19 -103t-79 -111t-160 -120l235 -223q67 112 80 211h291q-14 -103 -58.5 -212t-115.5 -204l154 -158l-201 -217l-170 178 q-186 -124 -436 -124q-257 0 -383.5 106.5t-126.5 284.5zM397 418q0 -79 58.5 -127.5t148.5 -48.5q132 0 227 59l-299 309q-135 -87 -135 -192zM537 1071q0 -45 22 -84.5t70 -93.5q76 50 109.5 93t33.5 87q0 66 -32.5 98.5t-82.5 32.5q-61 0 -90.5 -38t-29.5 -95z" />
<glyph unicode="'" horiz-adv-x="454" d="M74 1393h307l-35 -330h-235z" />
<glyph unicode="(" horiz-adv-x="675" d="M78 696q0 263 92 517.5t272 465.5h201q-258 -453 -258 -983q0 -254 60.5 -491.5t197.5 -491.5h-201q-179 210 -271.5 467t-92.5 516z" />
<glyph unicode=")" horiz-adv-x="675" d="M33 -287q137 254 197.5 491.5t60.5 491.5q0 530 -258 983h200q180 -212 272.5 -466t92.5 -517q0 -258 -93 -515t-272 -468h-200z" />
<glyph unicode="*" horiz-adv-x="843" d="M66 1073l51 172l241 -98l-24 246h174l-23 -246l238 98l53 -172l-250 -24l166 -185l-137 -104l-135 231l-133 -231l-137 104l165 185z" />
<glyph unicode="+" horiz-adv-x="1024" d="M74 416v254h311v311h254v-311h311v-254h-311v-312h-254v312h-311z" />
<glyph unicode="," horiz-adv-x="454" d="M74 0v311h307v-311l-145 -266h-93l56 266h-125z" />
<glyph unicode="-" horiz-adv-x="1024" d="M74 416v254h876v-254h-876z" />
<glyph unicode="." horiz-adv-x="454" d="M74 0v311h307v-311h-307z" />
<glyph unicode="/" horiz-adv-x="1105" d="M39 0l758 1393h270l-758 -1393h-270z" />
<glyph unicode="0" horiz-adv-x="1208" d="M74 707q0 126 13.5 226.5t50 192.5t95 153.5t152.5 97.5t219 36t219 -36t153 -97.5t95 -153.5t50 -192.5t14 -226.5q0 -127 -14 -229t-50 -197.5t-94.5 -159.5t-153 -102.5t-219.5 -38.5t-219 38.5t-152.5 102.5t-95 159.5t-50 197.5t-13.5 229zM399 707q0 -474 205 -474 t205 474q0 105 -10 183.5t-32.5 141t-63.5 95t-99 32.5t-99 -32.5t-63.5 -95t-32.5 -141t-10 -183.5z" />
<glyph unicode="1" horiz-adv-x="788" d="M29 1188q289 99 424 215h225v-1403h-307v1042l-267 -108z" />
<glyph unicode="2" horiz-adv-x="1126" d="M74 0v291q190 118 317 213t194.5 170t94.5 133t27 117q0 53 -16 93t-39 61.5t-55.5 34.5t-59 16.5t-56.5 3.5q-136 0 -317 -66l-90 244q139 55 244 78.5t235 23.5q232 0 355.5 -118.5t123.5 -307.5q0 -105 -35.5 -199.5t-109 -182.5t-162.5 -164.5t-217 -166.5v-4h545 v-270h-979z" />
<glyph unicode="3" horiz-adv-x="1167" d="M74 80l92 235q184 -82 389 -82q114 0 167.5 50.5t53.5 117.5q0 88 -61 128t-183 40h-190v254h176q227 0 227 187q0 62 -48.5 105.5t-141.5 43.5t-174 -18.5t-188 -63.5l-91 236q226 100 506 100q91 0 170.5 -23.5t141 -68.5t97.5 -116t36 -161q0 -222 -234 -313v-4 q138 -36 206.5 -129.5t68.5 -214.5q0 -193 -138 -298t-385 -105q-143 0 -258 21.5t-239 78.5z" />
<glyph unicode="4" horiz-adv-x="1208" d="M53 305v252q353 386 549 836h381v-836h172v-252h-172v-305h-307v305h-623zM367 557h309v438h-4q-71 -129 -133.5 -216t-171.5 -222z" />
<glyph unicode="5" horiz-adv-x="1167" d="M74 82l90 235q107 -46 192 -65t179 -19q118 0 175.5 60.5t57.5 155.5q0 38 -9.5 73t-31 67t-63 51t-97.5 19q-117 0 -196 -79l-217 18l22 795h836v-273h-570l-14 -276l4 -2q48 36 115.5 58t132.5 22q188 0 301 -118.5t113 -338.5q0 -238 -142 -361.5t-399 -123.5 q-130 0 -241.5 22.5t-237.5 79.5z" />
<glyph unicode="6" horiz-adv-x="1167" d="M74 614q0 799 620 799q183 0 357 -59l-37 -236q-168 41 -293 41q-62 0 -120.5 -20.5t-109 -60.5t-81 -110.5t-29.5 -160.5l4 -2q52 58 125.5 92.5t153.5 34.5q200 0 315 -126.5t115 -354.5q0 -218 -136 -344.5t-358 -126.5q-135 0 -238.5 52t-165 142t-92 201t-30.5 239z M403.5 481.5q-0.5 -49.5 10.5 -94.5t30.5 -79.5t56 -54.5t85.5 -20q79 0 130.5 57.5t51.5 160.5q0 40 -8.5 75t-28 68t-58 52.5t-91.5 19.5q-90 0 -174 -84q-4 -51 -4.5 -100.5z" />
<glyph unicode="7" horiz-adv-x="1024" d="M53 1120v273h918v-217q-71 -125 -113 -204.5t-102 -205.5t-98.5 -232t-76.5 -247t-61 -287h-344q45 263 170.5 567t288.5 549v4h-582z" />
<glyph unicode="8" horiz-adv-x="1208" d="M74 350q0 230 260 338v4q-219 118 -219 340q0 94 42 168.5t113 120t158.5 69t183.5 23.5q91 0 175.5 -23t153.5 -67t111 -115t42 -159q0 -108 -55.5 -181t-168.5 -133v-4q134 -68 199.5 -151.5t65.5 -196.5q0 -84 -29 -152t-79.5 -114t-119.5 -77.5t-147 -45.5t-164 -14 q-83 0 -157.5 12.5t-142 41t-116.5 70.5t-77.5 105t-28.5 141zM391 383q0 -73 55 -124.5t168 -51.5q105 0 154 41.5t49 107.5q0 24 -7.5 45.5t-17.5 37.5t-29.5 32t-35 26t-42.5 23t-42 19t-45 17.5t-41 16.5q-73 -29 -119.5 -77t-46.5 -113zM422 1040q0 -73 64 -122.5 t155 -73.5q63 23 104 70t41 108q0 73 -52 118.5t-138 45.5q-75 0 -124.5 -42t-49.5 -104z" />
<glyph unicode="9" horiz-adv-x="1167" d="M74 942q0 218 136 344.5t357 126.5q109 0 198 -34.5t149 -94t101.5 -141t60 -173t18.5 -192.5q0 -798 -621 -798q-182 0 -356 59l37 235q168 -41 292 -41q62 0 120.5 20.5t109 61t81 111t29.5 160.5l-4 2q-52 -59 -125 -93t-153 -34q-201 0 -315.5 126t-114.5 355z M399 942q0 -40 8.5 -75t27.5 -68t58 -52.5t93 -19.5q90 0 174 84q4 51 4.5 100t-10.5 94t-30.5 79t-56 54.5t-85.5 20.5q-79 0 -131 -57t-52 -160z" />
<glyph unicode=":" horiz-adv-x="454" d="M74 0v311h307v-311h-307zM74 629v313h307v-313h-307z" />
<glyph unicode=";" horiz-adv-x="454" d="M74 0v311h307v-311l-145 -266h-93l56 266h-125zM74 629v313h307v-313h-307z" />
<glyph unicode="&#x3c;" horiz-adv-x="778" d="M74 422v180l631 330v-273l-306 -147l306 -147v-273z" />
<glyph unicode="=" horiz-adv-x="1024" d="M74 211v254h876v-254h-876zM74 621v253h876v-253h-876z" />
<glyph unicode="&#x3e;" horiz-adv-x="778" d="M74 74v272l305 166l-305 166v272l631 -348v-180z" />
<glyph unicode="?" horiz-adv-x="983" d="M53 1331q90 38 211.5 60t235.5 22q100 0 178 -24.5t124.5 -62.5t76 -90t40.5 -101.5t11 -102.5q0 -69 -19 -126.5t-49 -97t-66.5 -73t-73 -61.5t-66.5 -54.5t-49 -58.5t-19 -69v-62h-271v62q0 68 16.5 124.5t42.5 94t57 68.5t62.5 56t57.5 48.5t42.5 52.5t16.5 63 q0 125 -178 125q-119 0 -293 -55zM299 0v311h307v-311h-307z" />
<glyph unicode="@" horiz-adv-x="1699" d="M61 518q0 235 107 422t296 291t425 104q206 0 376.5 -83t271.5 -236.5t101 -347.5q0 -149 -54 -267.5t-167 -192t-270 -73.5h-191v80h-2q-46 -51 -99 -72.5t-128 -21.5q-114 0 -179 71t-65 177q0 73 31.5 125t84 78.5t106.5 37.5t114 11h137v43q0 51 -30 74.5t-99 23.5 q-103 0 -264 -47l-43 162q208 67 369 67q150 0 229.5 -60t79.5 -206v-367q54 0 97.5 22t71 58t46.5 82.5t27 93t8 92.5q0 149 -74.5 265t-201 177.5t-281.5 61.5q-186 0 -331 -81t-225.5 -228t-80.5 -336q0 -166 74.5 -302.5t208 -215t299.5 -78.5l-19 -168 q-163 0 -304 58.5t-240 160t-155.5 242.5t-56.5 303zM725 389q0 -43 28 -64.5t68 -21.5q37 0 75.5 12t59.5 27v139h-127q-49 0 -76.5 -23t-27.5 -69z" />
<glyph unicode="A" horiz-adv-x="1331" d="M33 0l434 1403h399l432 -1403h-362l-82 295h-393l-84 -295h-344zM526 567h262l-129 430h-4z" />
<glyph unicode="B" horiz-adv-x="1249" d="M94 0v1393h602q223 0 341 -92.5t118 -264.5q0 -108 -55.5 -191t-147.5 -120v-4q112 -36 178 -120.5t66 -215.5q0 -183 -118.5 -284t-340.5 -101h-643zM420 289h264q82 0 125 29.5t43 111.5q0 81 -44 111t-130 30h-258v-282zM420 860h239q77 0 114.5 28.5t37.5 92.5 q0 65 -37.5 94t-114.5 29h-239v-244z" />
<glyph unicode="C" horiz-adv-x="1269" d="M74 707q0 125 18 226.5t62.5 193t115 153t181.5 97.5t256 36q245 0 512 -80l-72 -270q-161 37 -246.5 49t-167.5 12q-165 0 -240 -105.5t-75 -311.5q0 -221 74.5 -330t240.5 -109q81 0 166.5 12.5t247.5 49.5l72 -271q-264 -79 -512 -79q-145 0 -256 38t-181.5 102.5 t-115 159t-62.5 198t-18 229.5z" />
<glyph unicode="D" horiz-adv-x="1331" d="M94 0v1393h533q143 0 253 -34t180.5 -93t115 -147t63 -188t18.5 -224q0 -125 -18 -227t-63 -193t-115.5 -153t-180.5 -98t-253 -36h-533zM420 289h207q70 0 121 18.5t82.5 51.5t50 86.5t25.5 115t7 146.5q0 106 -11.5 175t-42 122t-87.5 76.5t-145 23.5h-207v-815z" />
<glyph unicode="E" horiz-adv-x="1146" d="M94 0v1393h969v-289h-643v-242h551v-289h-551v-284h653v-289h-979z" />
<glyph unicode="F" horiz-adv-x="1095" d="M94 0v1393h948v-289h-622v-283h530v-289h-530v-532h-326z" />
<glyph unicode="G" horiz-adv-x="1310" d="M74 707q0 125 18 226.5t62.5 193t115 153t181.5 97.5t256 36q129 0 245.5 -18t264.5 -62l-74 -270q-159 37 -243.5 49t-166.5 12q-165 0 -240 -105.5t-75 -311.5q0 -221 74.5 -330t240.5 -109q71 0 158 23v182h-191v289h517v-694q-148 -46 -264 -67t-246 -21 q-145 0 -256 38t-181.5 102.5t-115 159t-62.5 198t-18 229.5z" />
<glyph unicode="H" horiz-adv-x="1310" d="M94 0v1393h326v-531h471v531h326v-1393h-326v573h-471v-573h-326z" />
<glyph unicode="I" horiz-adv-x="514" d="M94 0v1393h326v-1393h-326z" />
<glyph unicode="J" horiz-adv-x="739" d="M25 -2l26 272q65 -10 115 -10q69 0 111 29.5t42 109.5v994h326v-1012q0 -206 -102 -303.5t-287 -97.5q-125 0 -231 18z" />
<glyph unicode="K" horiz-adv-x="1312" d="M94 0v1393h326v-588l467 588h387l-475 -592l479 -801h-408l-309 541l-141 -181v-360h-326z" />
<glyph unicode="L" horiz-adv-x="1105" d="M94 0v1393h326v-1104h633v-289h-959z" />
<glyph unicode="M" horiz-adv-x="1638" d="M94 0v1393h432l301 -852h4l279 852h434v-1393h-325v811h-5l-286 -811h-236l-276 811h-4v-811h-318z" />
<glyph unicode="N" horiz-adv-x="1331" d="M94 0v1393h326l495 -797h5v797h317v-1393h-326l-495 760h-4v-760h-318z" />
<glyph unicode="O" horiz-adv-x="1413" d="M74 707q0 125 18 226.5t62.5 193t115 153t181.5 97.5t256 36q104 0 191 -18.5t151.5 -52t114.5 -83t82.5 -108t53.5 -131t30 -149t9 -164.5q0 -125 -17.5 -228.5t-62.5 -198t-115 -159.5t-181 -103t-256 -38t-256 38t-181.5 103t-115 159.5t-62.5 198t-18 228.5zM418 707 q0 -86 6.5 -150.5t25 -124.5t50 -98.5t84 -61t123.5 -22.5t123.5 22.5t83.5 61t49.5 98.5t25 124.5t6.5 150.5t-6.5 148t-25 119t-50 91.5t-83 55t-123.5 20.5t-123.5 -20.5t-83.5 -55t-50.5 -91.5t-25 -119t-6.5 -148z" />
<glyph unicode="P" horiz-adv-x="1228" d="M94 0v1393h604q223 0 350.5 -126t127.5 -341q0 -216 -127 -340.5t-351 -124.5h-278v-461h-326zM420 750h244q178 0 178 176q0 94 -49 136t-129 42h-244v-354z" />
<glyph unicode="Q" horiz-adv-x="1413" d="M74 707q0 125 18 226.5t62.5 193t115 153t181.5 97.5t256 36q104 0 191 -18.5t151.5 -52t114.5 -83t82.5 -108t53.5 -131t30 -149t9 -164.5q0 -272 -109.5 -431.5t-305.5 -179.5q7 -37 178 -37q82 0 198 11v-291q-79 -8 -151 -8q-36 0 -70 2q-152 9 -266 62.5t-172 144.5 q-126 8 -224 50.5t-162 108.5t-105 157.5t-58.5 192t-17.5 218.5zM418 707q0 -86 6.5 -150.5t25 -124.5t50 -98.5t84 -61t123.5 -22.5t123.5 22.5t83.5 61t49.5 98.5t25 124.5t6.5 150.5t-6.5 148t-25 119t-50 91.5t-83 55t-123.5 20.5t-123.5 -20.5t-83.5 -55t-50.5 -91.5 t-25 -119t-6.5 -148z" />
<glyph unicode="R" horiz-adv-x="1259" d="M94 0v1393h604q223 0 350.5 -123t127.5 -336q0 -146 -65.5 -254t-197.5 -154l312 -526h-379l-273 473h-153v-473h-326zM420 762h239q183 0 183 172q0 170 -178 170h-244v-342z" />
<glyph unicode="S" horiz-adv-x="1228" d="M74 59l55 271q269 -62 485 -62q88 0 142.5 32.5t54.5 92.5q0 23 -7.5 42t-25.5 33.5t-35 25t-50 22t-55.5 18t-66 18.5t-69.5 19q-408 118 -408 443q0 104 41 182.5t113.5 125t164 69t201.5 22.5q235 0 502 -80l-72 -270q-267 61 -430 61q-84 0 -130 -31.5t-46 -86.5 q0 -23 8.5 -41.5t30 -34t42 -26t61.5 -22.5t70.5 -19.5t84.5 -20.5q199 -46 309.5 -147t110.5 -275q0 -112 -42 -198t-116.5 -138t-171 -78t-211.5 -26q-276 0 -540 79z" />
<glyph unicode="T" horiz-adv-x="1146" d="M53 1104v289h1041v-289h-359v-1104h-323v1104h-359z" />
<glyph unicode="U" horiz-adv-x="1310" d="M94 492v901h326v-901q0 -118 53 -180t184 -62q127 0 180.5 62.5t53.5 179.5v901h326v-901q0 -134 -41 -234t-117 -160t-176.5 -89t-227.5 -29t-227.5 29t-176.5 89t-116.5 159.5t-40.5 234.5z" />
<glyph unicode="V" horiz-adv-x="1331" d="M33 1393h362l279 -998h2l278 998h344l-432 -1403h-399z" />
<glyph unicode="W" horiz-adv-x="1925" d="M33 1393h362l191 -996h2l194 996h379l201 -996h2l184 996h344l-329 -1403h-416l-182 878h-4l-183 -878h-416z" />
<glyph unicode="X" horiz-adv-x="1331" d="M35 0l405 719l-389 674h379l229 -408h5l219 408h379l-390 -674l424 -719h-389l-266 453h-4l-242 -453h-360z" />
<glyph unicode="Y" horiz-adv-x="1269" d="M33 1393h370l238 -576h4l240 576h352l-440 -901v-492h-324v492z" />
<glyph unicode="Z" horiz-adv-x="1146" d="M51 0v236l582 864v4h-541v289h983v-236l-571 -864v-4h592v-289h-1045z" />
<glyph unicode="[" horiz-adv-x="614" d="M74 -287v1966h508v-182h-183v-1601h183v-183h-508z" />
<glyph unicode="\" horiz-adv-x="1105" d="M39 1393h270l758 -1393h-270z" />
<glyph unicode="]" horiz-adv-x="614" d="M33 -104h182v1601h-182v182h508v-1966h-508v183z" />
<glyph unicode="^" horiz-adv-x="778" d="M74 1044l223 390h184l224 -390h-164l-152 222l-151 -222h-164z" />
<glyph unicode="_" horiz-adv-x="1024" d="M74 -123h876v-182h-876v182z" />
<glyph unicode="`" horiz-adv-x="575" d="M106 1393h254l109 -246h-164z" />
<glyph unicode="a" horiz-adv-x="1034" d="M43 301q0 92 40.5 159t107.5 101t136.5 49t145.5 15h180v55q0 65 -43.5 88t-138.5 23q-137 0 -319 -39l-46 243q237 49 437 49q107 0 179.5 -14.5t129 -52t83 -106.5t26.5 -173v-698h-308v102h-4q-62 -67 -130 -94.5t-163 -27.5q-148 0 -230.5 91.5t-82.5 229.5zM350 328 q0 -56 39 -84.5t92 -28.5q48 0 96 15.5t76 37.5v174h-161q-142 0 -142 -114z" />
<glyph unicode="b" d="M74 -8v1442h307v-512h4q46 54 121.5 88t152.5 34q84 0 149 -28t106.5 -75.5t68.5 -116.5t38 -145t11 -167q0 -89 -12.5 -166.5t-42 -145.5t-73.5 -116t-110.5 -76t-150.5 -28q-74 0 -148.5 30.5t-127.5 83.5h-5l-53 -102h-235zM381 285q75 -52 154 -52q95 0 133.5 73.5 t38.5 205.5q0 85 -14 143.5t-53.5 97t-104.5 38.5q-79 0 -154 -52v-454z" />
<glyph unicode="c" horiz-adv-x="983" d="M53 512q0 127 27.5 221.5t89.5 166t168 108t256 36.5q168 0 362 -49l-53 -245q-81 19 -141 28.5t-88.5 11t-79.5 1.5q-102 0 -158.5 -68.5t-56.5 -210.5t56.5 -210.5t158.5 -68.5q51 0 79.5 1.5t88.5 11t141 28.5l53 -245q-194 -49 -362 -49q-150 0 -256 36.5t-168 108 t-89.5 166t-27.5 221.5z" />
<glyph unicode="d" d="M53 512q0 89 12.5 166.5t42 145.5t73.5 116t110.5 76t150.5 28q73 0 143 -30.5t115 -83.5h5v504h307v-1434h-307v102h-5q-46 -55 -121.5 -88.5t-154.5 -33.5q-371 0 -371 532zM379 512q0 -132 38.5 -205.5t133.5 -73.5q79 0 154 52v454q-75 52 -154 52 q-65 0 -104.5 -38.5t-53.5 -97t-14 -143.5z" />
<glyph unicode="e" d="M53 512q0 126 29 221.5t91.5 166.5t168 107.5t252.5 36.5q111 0 193 -23.5t132 -68t77 -99.5t38 -126q8 -47 8 -106q0 -79 -14 -179h-641q8 -98 72 -153.5t182 -55.5q56 0 90.5 1.5t98.5 11t128 28.5l37 -245q-175 -49 -399 -49q-148 0 -254 36.5t-168.5 107.5 t-91.5 166.5t-29 221.5zM387 633h338q3 20 3 42q0 13 -1 27q-10 107 -152 107q-88 0 -133.5 -44.5t-54.5 -131.5z" />
<glyph unicode="f" horiz-adv-x="706" d="M25 807v199l131 18v94q0 80 14.5 135t51 97.5t103.5 63t167 20.5q74 0 186 -19l-27 -235q-58 10 -88 10q-58 0 -79 -18.5t-21 -73.5v-74h201v-217h-201v-807h-307v807h-131z" />
<glyph unicode="g" horiz-adv-x="1136" d="M31 -164q0 66 36 113.5t115 85.5v4q-82 57 -82 143v6q0 59 40 116q43 61 126 102v4q-77 38 -121.5 115t-44.5 171q0 174 118.5 261t324.5 87q84 0 149 -20h391v-182h-149q41 -72 41 -146q0 -174 -117 -260t-315 -86q-64 0 -121 19q-9 -11 -23 -39q-6 -20 -7.5 -39t12 -33 t42.5 -16l338 -25q160 -12 241 -75.5t81 -190.5q0 -203 -151 -292t-474 -89q-234 0 -342 65t-108 201zM285 -111q0 -120 243 -120q103 0 177.5 31t74.5 91q0 33 -26 55.5t-76 26.5l-348 21q-1 -1 -9 -10.5t-9 -11.5t-7 -10t-7 -11.5t-5 -12t-5 -14.5t-2 -15.5t-1 -19.5z M391 696q0 -145 152 -145q71 0 111 35.5t40 109.5q0 75 -40 111.5t-111 36.5q-152 0 -152 -148z" />
<glyph unicode="h" d="M74 0v1434h307v-539h4q133 149 320 149q150 0 228.5 -93t78.5 -253v-698h-307v627q0 83 -35.5 123.5t-108.5 40.5q-76 0 -180 -60v-731h-307z" />
<glyph unicode="i" horiz-adv-x="454" d="M74 0v1024h307v-1024h-307zM74 1098v295h307v-295h-307z" />
<glyph unicode="j" horiz-adv-x="536" d="M-59 -412l28 236q55 -10 86 -10q58 0 79.5 18.5t21.5 75.5v1116h307v-1139q0 -80 -14.5 -135t-51 -97.5t-103.5 -62.5t-167 -20q-80 0 -186 18zM156 1098v295h307v-295h-307z" />
<glyph unicode="k" horiz-adv-x="1136" d="M74 0v1434h307v-738l330 328h372l-366 -377l387 -647h-363l-237 473l-123 -119v-354h-307z" />
<glyph unicode="l" horiz-adv-x="454" d="M74 0v1434h307v-1434h-307z" />
<glyph unicode="m" horiz-adv-x="1699" d="M74 0v1024h307v-129h4q130 149 311 149q202 0 271 -163q80 89 165 126t187 37q150 0 228.5 -93t78.5 -253v-698h-307v627q0 82 -37 123t-106 41q-75 0 -175 -62q3 -49 3 -117v-612h-308v639q-9 152 -143 152q-68 0 -172 -60v-731h-307z" />
<glyph unicode="n" d="M74 0v1024h307v-129h4q133 149 320 149q150 0 228.5 -93t78.5 -253v-698h-307v627q0 83 -35.5 123.5t-108.5 40.5q-76 0 -180 -60v-731h-307z" />
<glyph unicode="o" horiz-adv-x="1126" d="M53 512q0 256 121 394t389 138t389 -138t121 -394t-121 -394t-389 -138t-389 138t-121 394zM379 512q0 -140 41 -209.5t143 -69.5t143.5 69.5t41.5 209.5t-41.5 209.5t-143.5 69.5t-143 -69.5t-41 -209.5z" />
<glyph unicode="p" d="M74 -410v1434h307v-102h4q46 54 121.5 88t152.5 34q84 0 149 -28t106.5 -75.5t68.5 -116.5t38 -145t11 -167q0 -89 -12.5 -166.5t-42 -145.5t-73.5 -116t-110.5 -76t-150.5 -28q-74 0 -143.5 30.5t-114.5 83.5h-4v-504h-307zM381 285q75 -52 154 -52q95 0 133.5 73.5 t38.5 205.5q0 85 -14 143.5t-53.5 97t-104.5 38.5q-79 0 -154 -52v-454z" />
<glyph unicode="q" d="M53 512q0 89 12.5 166.5t42 145.5t73.5 116t110.5 76t150.5 28q73 0 148 -30.5t127 -83.5h4l55 102h236v-1442h-307v512h-5q-46 -55 -121.5 -88.5t-154.5 -33.5q-371 0 -371 532zM379 512q0 -132 38.5 -205.5t133.5 -73.5q79 0 154 52v454q-75 52 -154 52 q-65 0 -104.5 -38.5t-53.5 -97t-14 -143.5z" />
<glyph unicode="r" horiz-adv-x="757" d="M74 0v1024h307v-164h4q48 77 136.5 130.5t203.5 53.5v-288q-214 0 -344 -62v-694h-307z" />
<glyph unicode="s" horiz-adv-x="983" d="M43 29l55 245q214 -51 387 -51q72 0 110 22t38 52q0 29 -35 43.5t-115 28.5q-98 17 -168.5 40.5t-130.5 64t-90.5 104t-30.5 149.5q0 317 418 317q247 0 441 -49l-56 -245q-211 51 -366 51q-65 0 -97 -18.5t-32 -47.5q0 -28 28 -43.5t111 -34.5q162 -36 227 -63 q178 -72 200 -226q3 -24 3 -49q0 -171 -111 -255t-307 -84q-285 0 -479 49z" />
<glyph unicode="t" horiz-adv-x="768" d="M25 807v199l131 18l37 287h270v-287h242v-217h-242v-463q0 -121 135 -121q33 0 88 10l29 -235q-106 -18 -223 -18q-180 0 -258 75.5t-78 235.5v516h-131z" />
<glyph unicode="u" d="M74 326v698h307v-627q0 -82 37 -123t106 -41q77 0 181 60v731h307v-1024h-307v127h-5q-134 -147 -319 -147q-150 0 -228.5 92.5t-78.5 253.5z" />
<glyph unicode="v" horiz-adv-x="1146" d="M35 1024h344l199 -698h4l202 698h326l-350 -1034h-377z" />
<glyph unicode="w" horiz-adv-x="1617" d="M35 1024h344l153 -698h5l131 698h299l143 -698h4l143 698h324l-291 -1034h-344l-137 563h-4l-133 -563h-342z" />
<glyph unicode="x" horiz-adv-x="1116" d="M33 0l344 532l-314 492h353l159 -270h5l153 270h318l-318 -483l350 -541h-362l-184 307h-5l-174 -307h-325z" />
<glyph unicode="y" horiz-adv-x="1146" d="M35 1024h344l203 -700h4l198 700h326l-348 -1047q-75 -226 -185 -316.5t-296 -90.5q-96 0 -199 18l27 254q55 -10 100 -10q65 0 117.5 40t76.5 116z" />
<glyph unicode="z" horiz-adv-x="962" d="M29 0v217l487 567v4h-457v236h846v-217l-477 -567v-4h506v-236h-905z" />
<glyph unicode="{" horiz-adv-x="696" d="M74 623v147q30 4 53 12.5t38 17t25 26t15.5 30.5t8 40t3 44t0.5 53q0 60 -10 192t-10 195q0 47 8.5 86t21.5 67.5t36.5 51.5t46.5 38t58 25.5t64.5 16.5t73 9t76.5 4t82 1v-129q-21 0 -31 -0.5t-27 -2.5t-25 -7t-20 -14t-17 -23t-11.5 -34.5t-8.5 -48.5t-2 -64 q0 -62 13.5 -207t13.5 -209q0 -59 -15.5 -101t-47 -69t-66 -42.5t-86.5 -29.5v-4q52 -14 86.5 -29.5t66 -42t47 -68.5t15.5 -101q0 -64 -13.5 -210t-13.5 -208q0 -57 7.5 -94.5t17 -57.5t31 -30t37.5 -11.5t49 -1.5v-127q-49 0 -81.5 0.5t-77 4t-73.5 9t-64.5 16t-58 25.5 t-46 38t-36.5 52t-21.5 68t-8.5 86q0 63 10 195t10 192q0 36 -0.5 53t-3 44.5t-8 40t-15.5 30.5t-25 26.5t-38 17t-53 12.5z" />
<glyph unicode="|" horiz-adv-x="389" d="M94 -205v1802h201v-1802h-201z" />
<glyph unicode="}" horiz-adv-x="696" d="M33 -160q32 0 48.5 1.5t37.5 11.5t31 30t17 57.5t7 94.5q0 62 -14.5 208t-14.5 210q0 59 15.5 101t48 68.5t67 42t86.5 29.5v4q-52 14 -87 29.5t-67 42.5t-47.5 69t-15.5 101q0 64 14.5 209t14.5 207q0 36 -2 64t-8 48.5t-11.5 34.5t-17 23t-19.5 14t-25 7t-27 2.5 t-31 0.5v129q63 0 104 -1.5t95 -7.5t88.5 -18t72 -34t58.5 -53t35 -78t14 -107q0 -63 -10.5 -195t-10.5 -192q0 -49 1 -72.5t8.5 -55.5t22 -47t42.5 -28.5t70 -19.5v-147q-42 -6 -70 -19.5t-42.5 -29t-22 -47.5t-8.5 -55.5t-1 -72.5q0 -60 10.5 -192t10.5 -195 q0 -60 -14 -107t-35 -78.5t-58.5 -53.5t-71.5 -33.5t-89 -17.5t-95 -7.5t-104 -1.5v127z" />
<glyph unicode="~" horiz-adv-x="940" d="M66 596q48 110 107 162.5t118 52.5q54 0 198 -41t175 -41q28 0 40 1t39.5 15.5t53.5 45.5l77 -93q-82 -170 -210 -170q-39 0 -183.5 37t-183.5 37q-32 0 -62.5 -17t-72.5 -63z" />
<glyph unicode="&#xa1;" horiz-adv-x="454" d="M74 -369l18 944h270l19 -944h-307zM74 711v313h307v-313h-307z" />
<glyph unicode="&#xa2;" horiz-adv-x="1046" d="M72 512q0 234 135.5 377.5t367.5 152.5v187h127v-191q119 -8 273 -73l-37 -236q-142 52 -236 57v-550q97 6 236 59l37 -236q-146 -65 -273 -73v-191h-127v187q-233 9 -368 152t-135 378zM397 512q0 -117 47 -185.5t131 -86.5v542q-84 -15 -131 -84.5t-47 -185.5z" />
<glyph unicode="&#xa3;" horiz-adv-x="1267" d="M72 0v270h102v318h-102v235h102v191q0 105 38 183t107.5 124.5t158.5 69t198 22.5q147 0 286.5 -38.5t233.5 -100.5l-127 -252q-203 102 -375 102q-100 0 -156.5 -39t-56.5 -112v-150h424v-235h-424v-318h670v-270h-1079z" />
<glyph unicode="&#xa4;" horiz-adv-x="1050" d="M143 928l17 16l162 -184q90 74 204 74q113 0 203 -74l160 184l18 -16l-159 -183q102 -96 102 -235q0 -68 -26.5 -129t-73.5 -105l155 -176l-18 -18l-158 178q-88 -72 -203 -72q-116 0 -204 72l-156 -178l-19 18l156 176q-98 95 -98 234q0 138 98 233zM229 510 q0 -122 87.5 -209.5t209.5 -87.5t210.5 88t88.5 209q0 122 -88.5 210.5t-210.5 88.5q-121 0 -209 -88.5t-88 -210.5z" />
<glyph unicode="&#xa5;" horiz-adv-x="1345" d="M72 1393h370l238 -576h4l238 576h352l-391 -801h268v-182h-315v-410h-326v410h-315v182h268z" />
<glyph unicode="&#xa6;" horiz-adv-x="348" d="M74 -205v819h200v-819h-200zM74 778v819h200v-819h-200z" />
<glyph unicode="&#xa7;" horiz-adv-x="1224" d="M72 -248l55 271q269 -62 485 -62q88 0 142.5 32.5t54.5 92.5q0 23 -7.5 42t-25.5 33.5t-35 25t-50 22t-55.5 18t-66 18.5t-69.5 19q-408 118 -408 443h342q0 -34 20 -60t64 -46.5t90.5 -34t122.5 -31.5q200 -46 310 -147t110 -275q0 -112 -41.5 -198t-115.5 -138 t-170.5 -78.5t-211.5 -26.5q-273 0 -540 80zM92 1321q0 104 41 182.5t113.5 125t164 69t201.5 22.5q232 0 502 -80l-74 -270q-269 62 -428 62q-84 0 -131 -32t-47 -87q0 -23 8.5 -41.5t30.5 -34t42.5 -26t61.5 -23t69.5 -19.5t84.5 -20q98 -22 173.5 -57t134.5 -88 t88 -129.5t24 -174.5h-342q0 23 -7.5 42t-25.5 34t-35 25.5t-50 22t-55.5 18t-66.5 18.5t-69 19q-408 118 -408 442z" />
<glyph unicode="&#xa8;" horiz-adv-x="950" d="M106 1151v242h254v-242h-254zM588 1151v242h254v-242h-254z" />
<glyph unicode="&#xa9;" horiz-adv-x="1566" d="M61 696q0 196 96.5 361t262.5 260.5t362 95.5q197 0 363 -95.5t263 -260.5t97 -361t-97 -361t-263 -260t-363 -95t-362.5 95t-262 260t-96.5 361zM199 696q0 -160 77.5 -295.5t212 -215t293.5 -79.5q158 0 293.5 79.5t214 215.5t78.5 295q0 158 -79 292t-213.5 211 t-293.5 77t-293.5 -77.5t-212 -211t-77.5 -291.5zM430 705q0 169 97 260.5t266 91.5q157 0 272 -86l-66 -137q-95 63 -194 63q-178 0 -178 -192q0 -110 47 -161.5t131 -51.5q102 0 194 61l66 -135q-115 -86 -272 -86q-168 0 -265.5 97t-97.5 276z" />
<glyph unicode="&#xaa;" horiz-adv-x="595" d="M70 1030q0 47 20 80.5t53.5 50t68.5 24t73 7.5h88v29q0 33 -21 44t-69 11q-64 0 -158 -21q-4 24 -13 65t-12 58q136 25 219 25q108 0 157.5 -36.5t49.5 -135.5v-350h-153v51q-59 -62 -148 -62q-73 0 -114 46t-41 114zM223 1044q0 -29 19 -43t47 -14q48 0 84 27v88h-80 q-70 0 -70 -58z" />
<glyph unicode="&#xab;" horiz-adv-x="1462" d="M74 422v180l631 348v-272l-306 -166l306 -166v-272zM758 422v180l628 348v-272l-303 -166l303 -166v-272z" />
<glyph unicode="&#xac;" horiz-adv-x="1208" d="M115 416v254h979v-463h-254v209h-725z" />
<glyph unicode="&#xad;" horiz-adv-x="1024" d="M74 416v254h876v-254h-876z" />
<glyph unicode="&#xae;" horiz-adv-x="1566" d="M61 696q0 196 96.5 361t262.5 260.5t362 95.5q197 0 363 -95.5t263 -260.5t97 -361t-97 -361t-263 -260t-363 -95t-362.5 95t-262 260t-96.5 361zM199 696q0 -160 77.5 -295.5t212 -215t293.5 -79.5q158 0 293.5 79.5t214 215.5t78.5 295q0 158 -79 292t-213.5 211 t-293.5 77t-293.5 -77.5t-212 -211t-77.5 -291.5zM502 344v705h297q137 0 216 -64t79 -184q0 -82 -36.5 -138.5t-99.5 -82.5l164 -236h-225l-129 205h-84v-205h-182zM684 711h115q106 0 106 90q0 86 -106 86h-115v-176z" />
<glyph unicode="&#xaf;" horiz-adv-x="894" d="M106 1180v182h682v-182h-682z" />
<glyph unicode="&#xb0;" horiz-adv-x="532" d="M66 1192q0 83 58.5 142t141.5 59t142 -59t59 -142q0 -82 -59 -140.5t-142 -58.5t-141.5 58.5t-58.5 140.5zM178 1192q0 -37 25.5 -62.5t62.5 -25.5t62.5 25.5t25.5 62.5q0 38 -25.5 63t-62.5 25t-62.5 -25t-25.5 -63z" />
<glyph unicode="&#xb1;" horiz-adv-x="1024" d="M74 20v254h311v168h-311v254h311v293h254v-293h311v-254h-311v-168h311v-254h-876z" />
<glyph unicode="&#xb2;" horiz-adv-x="628" d="M70 1085v146q182 114 248.5 185t66.5 132q0 103 -113 103q-60 0 -157 -47l-45 118q121 70 247 70q110 0 171 -59.5t61 -153.5q0 -100 -65 -180.5t-197 -173.5v-2h272v-138h-489z" />
<glyph unicode="&#xb3;" horiz-adv-x="649" d="M70 1133l45 118q45 -21 67 -30.5t59.5 -19t73.5 -9.5q52 0 78.5 25t26.5 57q0 46 -29 66t-92 20h-94v127h86q112 0 112 92q0 32 -21 54t-58 22q-22 0 -41.5 -3t-42 -10.5t-34.5 -12t-40 -17.5t-37 -17l-45 117q121 70 252 70q96 0 159.5 -48.5t63.5 -136.5 q0 -110 -117 -155q69 -21 103.5 -68t34.5 -106q0 -97 -69.5 -150t-193.5 -53q-137 0 -247 68z" />
<glyph unicode="&#xb4;" horiz-adv-x="575" d="M106 1147l109 246h254l-199 -246h-164z" />
<glyph unicode="&#xb5;" d="M-141 -412l28 236q55 -10 86 -10q53 0 77 29t24 91v1090h307v-631q3 -160 143 -160q77 0 181 60v731h307v-1024h-307v127h-5q-90 -93 -192 -125q-77 -15 -127 2v-72q0 -185 -86.5 -273.5t-265.5 -88.5q-64 0 -170 18z" />
<glyph unicode="&#xb6;" horiz-adv-x="1155" d="M66 999q0 183 112.5 288.5t298.5 105.5h610v-111h-167v-1282h-127v1282h-127v-678h-189q-184 0 -297.5 109t-113.5 286z" />
<glyph unicode="&#xb7;" horiz-adv-x="501" d="M115 496v276h272v-276h-272z" />
<glyph unicode="&#xb8;" horiz-adv-x="600" d="M106 -395l19 96q41 -10 92 -10q42 0 66 19t24 50q0 30 -25.5 50t-68.5 28v162h111v-104q170 -26 170 -152q0 -76 -56.5 -120t-158.5 -44q-87 0 -173 25z" />
<glyph unicode="&#xb9;" horiz-adv-x="608" d="M51 1085v127h189v404q-12 -5 -59 -24.5t-72 -28.5l-39 118q144 48 213 107h112v-576h189v-127h-533z" />
<glyph unicode="&#xba;" horiz-adv-x="647" d="M70 1137q0 266 256 266q252 0 252 -266q0 -267 -252 -267q-256 0 -256 267zM231 1137q0 -70 21 -105t74 -35q50 0 70 35t20 105t-20 104.5t-70 34.5q-53 0 -74 -34.5t-21 -104.5z" />
<glyph unicode="&#xbb;" horiz-adv-x="1462" d="M74 74v272l305 166l-305 166v272l631 -348v-180zM758 74v272l305 166l-305 166v272l628 -348v-180z" />
<glyph unicode="&#xbc;" horiz-adv-x="1638" d="M51 676v127h189v403q-102 -43 -131 -53l-39 119q150 51 213 106h112v-575h189v-127h-533zM481 0l758 1393h92l-758 -1393h-92zM1036 152v127q176 192 275 417h190v-417h86v-127h-86v-152h-153v152h-312zM1194 279h154v217q-68 -110 -154 -217z" />
<glyph unicode="&#xbd;" horiz-adv-x="1638" d="M51 676v127h189v403q-102 -43 -131 -53l-39 119q150 51 213 106h112v-575h189v-127h-533zM440 0l758 1393h92l-758 -1393h-92zM1098 0v145q182 114 248.5 185.5t66.5 132.5q0 102 -113 102q-57 0 -157 -47l-45 119q121 70 248 70q110 0 170.5 -59.5t60.5 -153.5 q0 -101 -65 -182t-197 -173v-2h272v-137h-489z" />
<glyph unicode="&#xbe;" horiz-adv-x="1638" d="M51 723l45 119q46 -22 67.5 -31t60 -19t73.5 -10q52 0 79 25t27 57q0 46 -29.5 66t-92.5 20h-95v127h86q115 0 115 92q0 32 -22.5 54t-59.5 22q-15 0 -29.5 -1.5t-30.5 -5.5l-26 -6.5t-28 -10t-24.5 -10.5t-27.5 -13t-26 -12l-47 117q120 69 253 69q95 0 158.5 -48 t63.5 -136q0 -112 -115 -156q67 -21 101 -68t34 -106q0 -97 -68.5 -150t-191.5 -53q-140 0 -250 68zM481 0l758 1393h92l-758 -1393h-92zM1036 152v127q176 192 275 417h190v-417h86v-127h-86v-152h-153v152h-312zM1194 279h154v217q-68 -110 -154 -217z" />
<glyph unicode="&#xbf;" horiz-adv-x="983" d="M53 -8q0 69 19 126.5t48.5 97t66 73t73 61.5t66 54.5t48.5 58.5t19 69v62h273v-62q0 -79 -22 -142.5t-54.5 -101.5t-71 -73t-71 -59.5t-54.5 -58.5t-22 -72q0 -32 11.5 -56t28.5 -37t42.5 -20.5t46.5 -9.5t47 -2q121 0 295 55l88 -262q-90 -38 -211.5 -60t-235.5 -22 q-100 0 -178 24.5t-124.5 62.5t-76 90t-40.5 101.5t-11 102.5zM377 711v313h307v-313h-307z" />
<glyph unicode="&#xc0;" horiz-adv-x="1331" d="M33 0l434 1403h399l432 -1403h-362l-82 295h-393l-84 -295h-344zM367 1700h254l108 -246h-164zM526 567h262l-129 430h-4z" />
<glyph unicode="&#xc1;" horiz-adv-x="1331" d="M33 0l434 1403h399l432 -1403h-362l-82 295h-393l-84 -295h-344zM526 567h262l-129 430h-4zM596 1477l109 245h253l-198 -245h-164z" />
<glyph unicode="&#xc2;" horiz-adv-x="1331" d="M33 0l434 1403h399l432 -1403h-362l-82 295h-393l-84 -295h-344zM350 1495l225 246h183l223 -246h-164l-151 117l-152 -117h-164zM526 567h262l-129 430h-4z" />
<glyph unicode="&#xc3;" horiz-adv-x="1331" d="M33 0l434 1403h399l432 -1403h-362l-82 295h-393l-84 -295h-344zM311 1540q86 197 226 197q54 0 146.5 -40t123.5 -40q62 0 133 78l78 -93q-81 -169 -211 -169q-39 0 -132 36.5t-132 36.5q-34 0 -64 -16t-71 -62zM526 567h262l-129 430h-4z" />
<glyph unicode="&#xc4;" horiz-adv-x="1331" d="M33 0l434 1403h399l432 -1403h-362l-82 295h-393l-84 -295h-344zM297 1497v242h254v-242h-254zM526 567h262l-129 430h-4zM778 1497v242h254v-242h-254z" />
<glyph unicode="&#xc5;" horiz-adv-x="1331" d="M33 0l434 1403h399l432 -1403h-362l-82 295h-393l-84 -295h-344zM498 1618q0 70 49.5 116t120.5 46t118.5 -46t47.5 -116t-47.5 -116t-118.5 -46t-120.5 46t-49.5 116zM526 567h262l-129 430h-4zM594 1618q0 -33 21.5 -55.5t52.5 -22.5t51 22t20 56t-20 56t-51 22 t-52.5 -22.5t-21.5 -55.5z" />
<glyph unicode="&#xc6;" horiz-adv-x="1896" d="M33 0l649 1393h1130v-289h-643v-242h551v-289h-551v-284h654v-289h-979v332h-342l-146 -332h-323zM610 586h234v516h-4z" />
<glyph unicode="&#xc7;" horiz-adv-x="1269" d="M74 707q0 125 18 226.5t62.5 193t115 153t181.5 97.5t256 36q245 0 512 -80l-72 -270q-161 37 -246.5 49t-167.5 12q-165 0 -240 -105.5t-75 -311.5q0 -221 74.5 -330t240.5 -109q81 0 166.5 12.5t247.5 49.5l72 -271q-241 -73 -476 -79v-84q170 -27 170 -152 q0 -76 -57 -120t-158 -44q-86 0 -172 25l17 96q41 -10 94 -10q42 0 65 19t23 50q0 30 -25 50t-67 28v146q-127 8 -225 50.5t-160.5 107t-102 156t-55.5 191t-16 218.5z" />
<glyph unicode="&#xc8;" horiz-adv-x="1146" d="M94 0v1393h969v-289h-643v-242h551v-289h-551v-284h653v-289h-979zM338 1700h254l108 -246h-163z" />
<glyph unicode="&#xc9;" horiz-adv-x="1146" d="M94 0v1393h969v-289h-643v-242h551v-289h-551v-284h653v-289h-979zM469 1477l109 245h253l-198 -245h-164z" />
<glyph unicode="&#xca;" horiz-adv-x="1146" d="M94 0v1393h969v-289h-643v-242h551v-289h-551v-284h653v-289h-979zM268 1495l226 246h182l223 -246h-164l-151 117l-152 -117h-164z" />
<glyph unicode="&#xcb;" horiz-adv-x="1146" d="M94 0v1393h969v-289h-643v-242h551v-289h-551v-284h653v-289h-979zM223 1497v242h254v-242h-254zM705 1497v242h253v-242h-253z" />
<glyph unicode="&#xcc;" horiz-adv-x="514" d="M-12 1700h254l108 -246h-164zM94 0v1393h326v-1393h-326z" />
<glyph unicode="&#xcd;" horiz-adv-x="514" d="M94 0v1393h326v-1393h-326zM172 1477l109 245h254l-199 -245h-164z" />
<glyph unicode="&#xce;" horiz-adv-x="514" d="M-59 1495l225 246h182l223 -246h-163l-152 117l-152 -117h-163zM92 0v1393h326v-1393h-326z" />
<glyph unicode="&#xcf;" horiz-adv-x="514" d="M-111 1497v242h254v-242h-254zM96 0v1393h326v-1393h-326zM371 1497v242h254v-242h-254z" />
<glyph unicode="&#xd0;" horiz-adv-x="1366" d="M-8 616v181h139v596h531q143 0 253 -34t180.5 -93t115 -147t63 -188t18.5 -224q0 -125 -18 -227t-63 -193t-115.5 -153t-180.5 -98t-253 -36h-531v616h-139zM455 289h207q71 0 122 18.5t83 51.5t50.5 87t25.5 115t7 146q0 106 -11.5 175t-42.5 122t-88 76.5t-146 23.5 h-207v-307h215v-181h-215v-327z" />
<glyph unicode="&#xd1;" horiz-adv-x="1331" d="M94 0v1393h326l495 -797h5v797h317v-1393h-326l-495 760h-4v-760h-318zM311 1540q86 197 226 197q54 0 146.5 -40t123.5 -40q62 0 133 78l78 -93q-81 -169 -211 -169q-39 0 -132 36.5t-132 36.5q-34 0 -64 -16t-71 -62z" />
<glyph unicode="&#xd2;" horiz-adv-x="1413" d="M74 707q0 125 18 226.5t62.5 193t115 153t181.5 97.5t256 36q104 0 191 -18.5t151.5 -52t114.5 -83t82.5 -108t53.5 -131t30 -149t9 -164.5q0 -125 -17.5 -228.5t-62.5 -198t-115 -159.5t-181 -103t-256 -38t-256 38t-181.5 103t-115 159.5t-62.5 198t-18 228.5zM418 707 q0 -86 6.5 -150.5t25 -124.5t50 -98.5t84 -61t123.5 -22.5t123.5 22.5t83.5 61t49.5 98.5t25 124.5t6.5 150.5t-6.5 148t-25 119t-50 91.5t-83 55t-123.5 20.5t-123.5 -20.5t-83.5 -55t-50.5 -91.5t-25 -119t-6.5 -148zM438 1700h254l109 -246h-164z" />
<glyph unicode="&#xd3;" horiz-adv-x="1413" d="M74 707q0 125 18 226.5t62.5 193t115 153t181.5 97.5t256 36q104 0 191 -18.5t151.5 -52t114.5 -83t82.5 -108t53.5 -131t30 -149t9 -164.5q0 -125 -17.5 -228.5t-62.5 -198t-115 -159.5t-181 -103t-256 -38t-256 38t-181.5 103t-115 159.5t-62.5 198t-18 228.5zM418 707 q0 -86 6.5 -150.5t25 -124.5t50 -98.5t84 -61t123.5 -22.5t123.5 22.5t83.5 61t49.5 98.5t25 124.5t6.5 150.5t-6.5 148t-25 119t-50 91.5t-83 55t-123.5 20.5t-123.5 -20.5t-83.5 -55t-50.5 -91.5t-25 -119t-6.5 -148zM616 1477l109 245h254l-199 -245h-164z" />
<glyph unicode="&#xd4;" horiz-adv-x="1413" d="M74 707q0 125 18 226.5t62.5 193t115 153t181.5 97.5t256 36q104 0 191 -18.5t151.5 -52t114.5 -83t82.5 -108t53.5 -131t30 -149t9 -164.5q0 -125 -17.5 -228.5t-62.5 -198t-115 -159.5t-181 -103t-256 -38t-256 38t-181.5 103t-115 159.5t-62.5 198t-18 228.5z M391 1495l225 246h183l223 -246h-164l-151 117l-152 -117h-164zM418 707q0 -86 6.5 -150.5t25 -124.5t50 -98.5t84 -61t123.5 -22.5t123.5 22.5t83.5 61t49.5 98.5t25 124.5t6.5 150.5t-6.5 148t-25 119t-50 91.5t-83 55t-123.5 20.5t-123.5 -20.5t-83.5 -55t-50.5 -91.5 t-25 -119t-6.5 -148z" />
<glyph unicode="&#xd5;" horiz-adv-x="1413" d="M74 707q0 125 18 226.5t62.5 193t115 153t181.5 97.5t256 36q104 0 191 -18.5t151.5 -52t114.5 -83t82.5 -108t53.5 -131t30 -149t9 -164.5q0 -125 -17.5 -228.5t-62.5 -198t-115 -159.5t-181 -103t-256 -38t-256 38t-181.5 103t-115 159.5t-62.5 198t-18 228.5z M352 1540q86 197 226 197q54 0 146.5 -40t123.5 -40q62 0 133 78l78 -93q-81 -169 -211 -169q-39 0 -132 36.5t-132 36.5q-34 0 -64 -16t-71 -62zM418 707q0 -86 6.5 -150.5t25 -124.5t50 -98.5t84 -61t123.5 -22.5t123.5 22.5t83.5 61t49.5 98.5t25 124.5t6.5 150.5 t-6.5 148t-25 119t-50 91.5t-83 55t-123.5 20.5t-123.5 -20.5t-83.5 -55t-50.5 -91.5t-25 -119t-6.5 -148z" />
<glyph unicode="&#xd6;" horiz-adv-x="1413" d="M74 707q0 125 18 226.5t62.5 193t115 153t181.5 97.5t256 36q104 0 191 -18.5t151.5 -52t114.5 -83t82.5 -108t53.5 -131t30 -149t9 -164.5q0 -125 -17.5 -228.5t-62.5 -198t-115 -159.5t-181 -103t-256 -38t-256 38t-181.5 103t-115 159.5t-62.5 198t-18 228.5z M338 1497v242h254v-242h-254zM418 707q0 -86 6.5 -150.5t25 -124.5t50 -98.5t84 -61t123.5 -22.5t123.5 22.5t83.5 61t49.5 98.5t25 124.5t6.5 150.5t-6.5 148t-25 119t-50 91.5t-83 55t-123.5 20.5t-123.5 -20.5t-83.5 -55t-50.5 -91.5t-25 -119t-6.5 -148zM819 1497v242 h254v-242h-254z" />
<glyph unicode="&#xd7;" horiz-adv-x="1060" d="M74 266l278 277l-278 276l180 180l276 -278l277 278l180 -180l-276 -276l276 -277l-180 -180l-277 276l-276 -276z" />
<glyph unicode="&#xd8;" horiz-adv-x="1413" d="M66 -4l147 184q-139 178 -139 527q0 125 18 226.5t62.5 193t115 153t181.5 97.5t256 36q246 0 397 -106l149 188l93 -74l-154 -192q147 -174 147 -522q0 -125 -17.5 -228.5t-62.5 -198t-115 -159.5t-181 -103t-256 -38q-257 0 -410 118l-139 -176zM418 707 q0 -155 22 -238l473 596q-67 76 -206 76q-72 0 -123.5 -20.5t-83.5 -55t-50.5 -91.5t-25 -119t-6.5 -148zM492 344q66 -94 215 -94q71 0 123.5 22.5t83.5 61t49.5 98.5t25 124.5t6.5 150.5q0 159 -28 239z" />
<glyph unicode="&#xd9;" horiz-adv-x="1310" d="M94 492v901h326v-901q0 -118 53 -180t184 -62q127 0 180.5 62.5t53.5 179.5v901h326v-901q0 -134 -41 -234t-117 -160t-176.5 -89t-227.5 -29t-227.5 29t-176.5 89t-116.5 159.5t-40.5 234.5zM379 1700h254l108 -246h-163z" />
<glyph unicode="&#xda;" horiz-adv-x="1310" d="M94 492v901h326v-901q0 -118 53 -180t184 -62q127 0 180.5 62.5t53.5 179.5v901h326v-901q0 -134 -41 -234t-117 -160t-176.5 -89t-227.5 -29t-227.5 29t-176.5 89t-116.5 159.5t-40.5 234.5zM567 1477l109 245h254l-199 -245h-164z" />
<glyph unicode="&#xdb;" horiz-adv-x="1310" d="M94 492v901h326v-901q0 -118 53 -180t184 -62q127 0 180.5 62.5t53.5 179.5v901h326v-901q0 -134 -41 -234t-117 -160t-176.5 -89t-227.5 -29t-227.5 29t-176.5 89t-116.5 159.5t-40.5 234.5zM340 1495l225 246h183l223 -246h-164l-152 117l-151 -117h-164z" />
<glyph unicode="&#xdc;" horiz-adv-x="1310" d="M94 492v901h326v-901q0 -118 53 -180t184 -62q127 0 180.5 62.5t53.5 179.5v901h326v-901q0 -134 -41 -234t-117 -160t-176.5 -89t-227.5 -29t-227.5 29t-176.5 89t-116.5 159.5t-40.5 234.5zM287 1497v242h254v-242h-254zM768 1497v242h254v-242h-254z" />
<glyph unicode="&#xdd;" horiz-adv-x="1269" d="M33 1393h370l238 -576h4l240 576h352l-440 -901v-492h-324v492zM569 1477l109 245h254l-199 -245h-164z" />
<glyph unicode="&#xde;" horiz-adv-x="1228" d="M94 0v1393h326v-222h260q226 0 361 -125.5t135 -338.5q0 -215 -135 -341t-361 -126h-260v-240h-326zM420 530h225q85 0 141 41.5t56 135.5q0 91 -56.5 133.5t-140.5 42.5h-225v-353z" />
<glyph unicode="&#xdf;" horiz-adv-x="1320" d="M25 807v199l131 18q0 94 28 166.5t74.5 118t112.5 74.5t135 40t149 11q459 0 459 -308q0 -59 -24 -110t-58.5 -85t-68.5 -63t-58 -58t-24 -56q0 -36 21 -55.5t65 -36.5q176 -67 243.5 -152.5t67.5 -192.5q0 -90 -38 -157.5t-103.5 -105.5t-143 -56t-166.5 -18 q-139 0 -264 40l37 236q124 -41 219 -41q67 0 100 29t33 71q0 32 -24 62t-49.5 46t-69 39t-55.5 30q-95 55 -128.5 98t-33.5 129q0 46 17 86.5t41.5 71t49 59.5t41.5 64t17 73q0 58 -35 87.5t-94 29.5q-166 0 -166 -225v-965h-307v807h-131z" />
<glyph unicode="&#xe0;" horiz-adv-x="1034" d="M43 301q0 92 40.5 159t107.5 101t136.5 49t145.5 15h180v55q0 65 -43.5 88t-138.5 23q-137 0 -319 -39l-46 243q237 49 437 49q107 0 179.5 -14.5t129 -52t83 -106.5t26.5 -173v-698h-308v102h-4q-62 -67 -130 -94.5t-163 -27.5q-148 0 -230.5 91.5t-82.5 229.5z M272 1393h254l109 -246h-164zM350 328q0 -56 39 -84.5t92 -28.5q48 0 96 15.5t76 37.5v174h-161q-142 0 -142 -114z" />
<glyph unicode="&#xe1;" horiz-adv-x="1034" d="M43 301q0 92 40.5 159t107.5 101t136.5 49t145.5 15h180v55q0 65 -43.5 88t-138.5 23q-137 0 -319 -39l-46 243q237 49 437 49q107 0 179.5 -14.5t129 -52t83 -106.5t26.5 -173v-698h-308v102h-4q-62 -67 -130 -94.5t-163 -27.5q-148 0 -230.5 91.5t-82.5 229.5zM350 328 q0 -56 39 -84.5t92 -28.5q48 0 96 15.5t76 37.5v174h-161q-142 0 -142 -114zM434 1147l109 246h254l-199 -246h-164z" />
<glyph unicode="&#xe2;" horiz-adv-x="1034" d="M43 301q0 92 40.5 159t107.5 101t136.5 49t145.5 15h180v55q0 65 -43.5 88t-138.5 23q-137 0 -319 -39l-46 243q237 49 437 49q107 0 179.5 -14.5t129 -52t83 -106.5t26.5 -173v-698h-308v102h-4q-62 -67 -130 -94.5t-163 -27.5q-148 0 -230.5 91.5t-82.5 229.5z M221 1147l225 246h183l223 -246h-164l-151 117l-152 -117h-164zM350 328q0 -56 39 -84.5t92 -28.5q48 0 96 15.5t76 37.5v174h-161q-142 0 -142 -114z" />
<glyph unicode="&#xe3;" horiz-adv-x="1034" d="M43 301q0 92 40.5 159t107.5 101t136.5 49t145.5 15h180v55q0 65 -43.5 88t-138.5 23q-137 0 -319 -39l-46 243q237 49 437 49q107 0 179.5 -14.5t129 -52t83 -106.5t26.5 -173v-698h-308v102h-4q-62 -67 -130 -94.5t-163 -27.5q-148 0 -230.5 91.5t-82.5 229.5z M199 1192q86 197 225 197q54 0 146.5 -40t123.5 -40q63 0 133 77l78 -92q-82 -170 -211 -170q-39 0 -132 37t-132 37q-34 0 -64 -16t-71 -62zM350 328q0 -56 39 -84.5t92 -28.5q48 0 96 15.5t76 37.5v174h-161q-142 0 -142 -114z" />
<glyph unicode="&#xe4;" horiz-adv-x="1034" d="M43 301q0 92 40.5 159t107.5 101t136.5 49t145.5 15h180v55q0 65 -43.5 88t-138.5 23q-137 0 -319 -39l-46 243q237 49 437 49q107 0 179.5 -14.5t129 -52t83 -106.5t26.5 -173v-698h-308v102h-4q-62 -67 -130 -94.5t-163 -27.5q-148 0 -230.5 91.5t-82.5 229.5z M168 1151v242h254v-242h-254zM350 328q0 -56 39 -84.5t92 -28.5q48 0 96 15.5t76 37.5v174h-161q-142 0 -142 -114zM649 1151v242h254v-242h-254z" />
<glyph unicode="&#xe5;" horiz-adv-x="1034" d="M43 301q0 92 40.5 159t107.5 101t136.5 49t145.5 15h180v55q0 65 -43.5 88t-138.5 23q-137 0 -319 -39l-46 243q237 49 437 49q107 0 179.5 -14.5t129 -52t83 -106.5t26.5 -173v-698h-308v102h-4q-62 -67 -130 -94.5t-163 -27.5q-148 0 -230.5 91.5t-82.5 229.5zM350 328 q0 -56 39 -84.5t92 -28.5q48 0 96 15.5t76 37.5v174h-161q-142 0 -142 -114zM354 1270q0 70 49.5 116t120.5 46t118.5 -46t47.5 -116t-47.5 -116t-118.5 -46t-120.5 46t-49.5 116zM451 1270q0 -34 21 -56t52 -22t51.5 22t20.5 56t-20.5 56t-51.5 22t-52 -22t-21 -56z" />
<glyph unicode="&#xe6;" horiz-adv-x="1683" d="M43 301q0 78 29.5 138t73.5 94t104.5 56t113.5 29t109 7h180v55q0 65 -43.5 88t-138.5 23q-137 0 -319 -39q-7 38 -23 119t-23 124q185 38 363 47q49 3 100 -4q207 -10 289 -92q122 98 334 98q93 0 166.5 -17.5t122.5 -47t82.5 -74.5t50.5 -94.5t22.5 -113t2.5 -123 t-13 -132.5h-639q6 -99 70.5 -154t183.5 -55q181 0 318 41l36 -245q-175 -49 -399 -49q-332 0 -459 188q-96 -110 -186 -149t-195 -39q-145 0 -229 88.5t-84 232.5zM350 328q0 -56 39 -84.5t92 -28.5q50 0 99.5 16.5t81.5 42.5q-9 80 -9 168h-161q-142 0 -142 -114zM987 633 h336q13 82 -18.5 129t-128.5 47q-173 0 -189 -176z" />
<glyph unicode="&#xe7;" horiz-adv-x="983" d="M53 512q0 127 27.5 221.5t89.5 166t168 108t256 36.5q168 0 362 -49l-53 -245q-81 19 -141 28.5t-88.5 11t-79.5 1.5q-102 0 -158.5 -68.5t-56.5 -210.5t56.5 -210.5t158.5 -68.5q51 0 79.5 1.5t88.5 11t141 28.5l53 -245q-178 -46 -348 -49v-84q170 -26 170 -152 q0 -76 -56.5 -120t-158.5 -44q-87 0 -170 25l17 96q41 -10 92 -10q42 0 66 19t24 50q0 30 -25.5 50t-68.5 28v148q-122 10 -209 51t-138 111t-74.5 159t-23.5 205z" />
<glyph unicode="&#xe8;" d="M53 512q0 126 29 221.5t91.5 166.5t168 107.5t252.5 36.5q111 0 193 -23.5t132 -68t77 -99.5t38 -126q18 -109 -6 -285h-641q8 -98 72 -153.5t182 -55.5q56 0 90.5 1.5t98.5 11t128 28.5l37 -245q-175 -49 -399 -49q-148 0 -254 36.5t-168.5 107.5t-91.5 166.5t-29 221.5 zM313 1393h254l109 -246h-164zM387 633h338q5 32 2 69q-10 107 -152 107q-88 0 -133.5 -44.5t-54.5 -131.5z" />
<glyph unicode="&#xe9;" d="M53 512q0 126 29 221.5t91.5 166.5t168 107.5t252.5 36.5q111 0 193 -23.5t132 -68t77 -99.5t38 -126q18 -109 -6 -285h-641q8 -98 72 -153.5t182 -55.5q56 0 90.5 1.5t98.5 11t128 28.5l37 -245q-175 -49 -399 -49q-148 0 -254 36.5t-168.5 107.5t-91.5 166.5t-29 221.5 zM387 633h338q5 32 2 69q-10 107 -152 107q-88 0 -133.5 -44.5t-54.5 -131.5zM528 1147l109 246h254l-199 -246h-164z" />
<glyph unicode="&#xea;" d="M53 512q0 126 29 221.5t91.5 166.5t168 107.5t252.5 36.5q111 0 193 -23.5t132 -68t77 -99.5t38 -126q18 -109 -6 -285h-641q8 -98 72 -153.5t182 -55.5q56 0 90.5 1.5t98.5 11t128 28.5l37 -245q-175 -49 -399 -49q-148 0 -254 36.5t-168.5 107.5t-91.5 166.5t-29 221.5 zM227 1147l226 246h182l223 -246h-164l-151 117l-152 -117h-164zM387 633h338q5 32 2 69q-10 107 -152 107q-88 0 -133.5 -44.5t-54.5 -131.5z" />
<glyph unicode="&#xeb;" d="M53 512q0 126 29 221.5t91.5 166.5t168 107.5t252.5 36.5q111 0 193 -23.5t132 -68t77 -99.5t38 -126q18 -109 -6 -285h-641q8 -98 72 -153.5t182 -55.5q56 0 90.5 1.5t98.5 11t128 28.5l37 -245q-175 -49 -399 -49q-148 0 -254 36.5t-168.5 107.5t-91.5 166.5t-29 221.5 zM174 1151v242h254v-242h-254zM387 633h338q5 32 2 69q-10 107 -152 107q-88 0 -133.5 -44.5t-54.5 -131.5zM655 1151v242h254v-242h-254z" />
<glyph unicode="&#xec;" horiz-adv-x="454" d="M-41 1393h254l109 -246h-164zM74 0v1024h307v-1024h-307z" />
<glyph unicode="&#xed;" horiz-adv-x="454" d="M74 0v1024h307v-1024h-307zM150 1147l108 246h254l-199 -246h-163z" />
<glyph unicode="&#xee;" horiz-adv-x="454" d="M-88 1147l225 246h182l224 -246h-164l-152 117l-151 -117h-164zM74 0v1024h307v-1024h-307z" />
<glyph unicode="&#xef;" horiz-adv-x="454" d="M-141 1151v242h254v-242h-254zM74 0v1024h307v-1024h-307zM340 1151v242h254v-242h-254z" />
<glyph unicode="&#xf0;" horiz-adv-x="1126" d="M53 451q0 229 114.5 355t315.5 126q80 0 153.5 -34.5t125.5 -92.5l4 2q0 166 -84 256l-98 -100l-103 104l68 68q-67 24 -123 24q-140 0 -293 -59l-37 235q103 43 181 60.5t176 17.5q176 0 305 -70l147 148l103 -102l-131 -129q196 -196 196 -646q0 -128 -30.5 -239 t-92 -201t-165 -142t-238.5 -52q-222 0 -358 126.5t-136 344.5zM379 451q0 -103 51.5 -160.5t130.5 -57.5q49 0 85.5 20t56 54.5t30.5 79.5t10.5 94.5t-4.5 100.5q-84 84 -174 84q-54 0 -92.5 -19.5t-58 -52.5t-27.5 -68t-8 -75z" />
<glyph unicode="&#xf1;" d="M74 0v1024h307v-129h4q133 149 320 149q150 0 228.5 -93t78.5 -253v-698h-307v627q0 83 -35.5 123.5t-108.5 40.5q-76 0 -180 -60v-731h-307zM188 1192q86 197 226 197q54 0 146.5 -40t123.5 -40q63 0 133 77l78 -92q-82 -170 -211 -170q-39 0 -132 37t-132 37 q-34 0 -64 -16t-71 -62z" />
<glyph unicode="&#xf2;" horiz-adv-x="1126" d="M53 512q0 256 121 394t389 138t389 -138t121 -394t-121 -394t-389 -138t-389 138t-121 394zM301 1393h254l109 -246h-164zM379 512q0 -140 41 -209.5t143 -69.5t143.5 69.5t41.5 209.5t-41.5 209.5t-143.5 69.5t-143 -69.5t-41 -209.5z" />
<glyph unicode="&#xf3;" horiz-adv-x="1126" d="M53 512q0 256 121 394t389 138t389 -138t121 -394t-121 -394t-389 -138t-389 138t-121 394zM379 512q0 -140 41 -209.5t143 -69.5t143.5 69.5t41.5 209.5t-41.5 209.5t-143.5 69.5t-143 -69.5t-41 -209.5zM481 1147l109 246h254l-199 -246h-164z" />
<glyph unicode="&#xf4;" horiz-adv-x="1126" d="M53 512q0 256 121 394t389 138t389 -138t121 -394t-121 -394t-389 -138t-389 138t-121 394zM248 1147l225 246h182l224 -246h-164l-152 117l-151 -117h-164zM379 512q0 -140 41 -209.5t143 -69.5t143.5 69.5t41.5 209.5t-41.5 209.5t-143.5 69.5t-143 -69.5t-41 -209.5z " />
<glyph unicode="&#xf5;" horiz-adv-x="1126" d="M53 512q0 256 121 394t389 138t389 -138t121 -394t-121 -394t-389 -138t-389 138t-121 394zM213 1192q86 197 225 197q54 0 147 -40t124 -40q63 0 133 77l78 -92q-82 -170 -211 -170q-39 0 -132.5 37t-132.5 37q-34 0 -64 -16t-71 -62zM379 512q0 -140 41 -209.5 t143 -69.5t143.5 69.5t41.5 209.5t-41.5 209.5t-143.5 69.5t-143 -69.5t-41 -209.5z" />
<glyph unicode="&#xf6;" horiz-adv-x="1126" d="M53 512q0 256 121 394t389 138t389 -138t121 -394t-121 -394t-389 -138t-389 138t-121 394zM186 1151v242h254v-242h-254zM379 512q0 -140 41 -209.5t143 -69.5t143.5 69.5t41.5 209.5t-41.5 209.5t-143.5 69.5t-143 -69.5t-41 -209.5zM668 1151v242h254v-242h-254z" />
<glyph unicode="&#xf7;" horiz-adv-x="1024" d="M74 416v254h876v-254h-876zM377 61v277h270v-277h-270zM377 748v276h270v-276h-270z" />
<glyph unicode="&#xf8;" horiz-adv-x="1126" d="M45 -4l117 137q-109 132 -109 379q0 256 121 394t389 138q190 0 309 -77l117 135l90 -74l-116 -137q110 -133 110 -379q0 -256 -121 -394t-389 -138q-188 0 -311 77l-115 -135zM379 512q0 -74 12 -111l295 347q-46 43 -123 43q-102 0 -143 -69.5t-41 -209.5zM438 274 q47 -41 125 -41q102 0 143.5 69.5t41.5 209.5q0 62 -15 111z" />
<glyph unicode="&#xf9;" d="M74 326v698h307v-627q0 -82 37 -123t106 -41q77 0 181 60v731h307v-1024h-307v127h-5q-134 -147 -319 -147q-150 0 -228.5 92.5t-78.5 253.5zM250 1393h254l108 -246h-163z" />
<glyph unicode="&#xfa;" d="M74 326v698h307v-627q0 -82 37 -123t106 -41q77 0 181 60v731h307v-1024h-307v127h-5q-134 -147 -319 -147q-150 0 -228.5 92.5t-78.5 253.5zM461 1147l108 246h254l-198 -246h-164z" />
<glyph unicode="&#xfb;" d="M74 326v698h307v-627q0 -82 37 -123t106 -41q77 0 181 60v731h307v-1024h-307v127h-5q-134 -147 -319 -147q-150 0 -228.5 92.5t-78.5 253.5zM227 1147l226 246h182l223 -246h-164l-151 117l-152 -117h-164z" />
<glyph unicode="&#xfc;" d="M74 326v698h307v-627q0 -82 37 -123t106 -41q77 0 181 60v731h307v-1024h-307v127h-5q-134 -147 -319 -147q-150 0 -228.5 92.5t-78.5 253.5zM174 1151v242h254v-242h-254zM655 1151v242h254v-242h-254z" />
<glyph unicode="&#xfd;" horiz-adv-x="1146" d="M35 1024h344l203 -700h4l198 700h326l-348 -1047q-75 -226 -185 -316.5t-296 -90.5q-96 0 -199 18l27 254q55 -10 100 -10q65 0 117.5 40t76.5 116zM504 1147l108 246h254l-198 -246h-164z" />
<glyph unicode="&#xfe;" d="M74 -410v1844h307v-512h4q46 54 121.5 88t152.5 34q84 0 149 -28t106.5 -75.5t68.5 -116.5t38 -145t11 -167q0 -89 -12.5 -166.5t-42 -145.5t-73.5 -116t-110.5 -76t-150.5 -28q-74 0 -143.5 30.5t-114.5 83.5h-4v-504h-307zM381 285q75 -52 154 -52q95 0 133.5 73.5 t38.5 205.5q0 85 -14 143.5t-53.5 97t-104.5 38.5q-79 0 -154 -52v-454z" />
<glyph unicode="&#xff;" horiz-adv-x="1146" d="M35 1024h344l203 -700h4l198 700h326l-348 -1047q-75 -226 -185 -316.5t-296 -90.5q-96 0 -199 18l27 254q55 -10 100 -10q65 0 117.5 40t76.5 116zM205 1151v242h254v-242h-254zM686 1151v242h254v-242h-254z" />
<glyph unicode="&#x152;" horiz-adv-x="2039" d="M74 707q0 125 18 226.5t62.5 193t115 153t181.5 97.5t256 36q181 0 286 -108h2v88h959v-289h-641v-242h549v-289h-549v-284h651v-289h-969v88h-2q-84 -108 -286 -108q-112 0 -204 23t-156.5 61.5t-114 95t-79 118t-48 137t-25 144.5t-6.5 148zM418 707q0 -86 6.5 -150.5 t25 -124.5t50 -98.5t84 -61t123.5 -22.5t123.5 23t83.5 61t49.5 98.5t25 125t6.5 151.5q0 86 -6.5 148t-25 118.5t-50 91t-83 54.5t-123.5 20t-123.5 -20.5t-83.5 -55t-50.5 -91.5t-25 -119t-6.5 -148z" />
<glyph unicode="&#x153;" horiz-adv-x="1781" d="M53 512q0 256 121 394t389 138q227 0 350 -126q126 126 377 126q449 0 449 -413q0 -71 -15 -189h-641q6 -98 70.5 -153.5t183.5 -55.5q57 0 91.5 1.5t98.5 11t128 28.5l37 -245q-175 -49 -400 -49q-252 0 -379 124q-121 -124 -350 -124q-268 0 -389 138t-121 394z M379 512q0 -140 41 -209.5t143 -69.5q103 0 144 69t41 210q0 140 -41.5 209.5t-143.5 69.5t-143 -69.5t-41 -209.5zM1083 633h338q4 40 4 53q0 56 -37 89.5t-116 33.5q-173 0 -189 -176z" />
<glyph unicode="&#x178;" horiz-adv-x="1269" d="M33 1393h370l238 -576h4l240 576h352l-440 -901v-492h-324v492zM266 1497v242h254v-242h-254zM748 1497v242h253v-242h-253z" />
<glyph unicode="&#x2c6;" horiz-adv-x="843" d="M106 1147l226 246h182l223 -246h-164l-151 117l-152 -117h-164z" />
<glyph unicode="&#x2dc;" horiz-adv-x="919" d="M106 1192q86 197 226 197q54 0 146.5 -40t123.5 -40q63 0 133 77l78 -92q-82 -170 -211 -170q-39 0 -132 37t-132 37q-34 0 -64 -16t-71 -62z" />
<glyph unicode="&#x2000;" horiz-adv-x="896" />
<glyph unicode="&#x2001;" horiz-adv-x="1792" />
<glyph unicode="&#x2002;" horiz-adv-x="896" />
<glyph unicode="&#x2003;" horiz-adv-x="1792" />
<glyph unicode="&#x2004;" horiz-adv-x="597" />
<glyph unicode="&#x2005;" horiz-adv-x="448" />
<glyph unicode="&#x2006;" horiz-adv-x="298" />
<glyph unicode="&#x2007;" horiz-adv-x="298" />
<glyph unicode="&#x2008;" horiz-adv-x="224" />
<glyph unicode="&#x2009;" horiz-adv-x="358" />
<glyph unicode="&#x200a;" horiz-adv-x="99" />
<glyph unicode="&#x2010;" horiz-adv-x="1024" d="M74 416v254h876v-254h-876z" />
<glyph unicode="&#x2011;" horiz-adv-x="1024" d="M74 416v254h876v-254h-876z" />
<glyph unicode="&#x2012;" horiz-adv-x="1024" d="M74 416v254h876v-254h-876z" />
<glyph unicode="&#x2013;" horiz-adv-x="1431" d="M74 416v254h1282v-254h-1282z" />
<glyph unicode="&#x2014;" horiz-adv-x="1556" d="M74 416v254h1409v-254h-1409z" />
<glyph unicode="&#x2018;" horiz-adv-x="454" d="M74 813v313l145 267h92l-55 -267h125v-313h-307z" />
<glyph unicode="&#x2019;" horiz-adv-x="454" d="M74 1079v314h307v-314l-145 -266h-93l56 266h-125z" />
<glyph unicode="&#x201a;" horiz-adv-x="454" d="M74 -109v314h307v-314l-145 -266h-93l56 266h-125z" />
<glyph unicode="&#x201c;" horiz-adv-x="905" d="M74 813v313l145 267h92l-55 -267h125v-313h-307zM524 813v313q24 47 146 267h92l-55 -267h124v-313h-307z" />
<glyph unicode="&#x201d;" horiz-adv-x="905" d="M74 1079v314h307v-314l-145 -266h-93l56 266h-125zM524 1079v314h307v-314l-145 -266h-92l55 266h-125z" />
<glyph unicode="&#x201e;" horiz-adv-x="905" d="M74 -109v314h307v-314l-145 -266h-93l56 266h-125zM524 -109v314h307v-314l-145 -266h-92l55 266h-125z" />
<glyph unicode="&#x2022;" horiz-adv-x="536" d="M115 356v312h307v-312h-307z" />
<glyph unicode="&#x2026;" horiz-adv-x="1273" d="M74 0v311h307v-311h-307zM483 0v311h308v-311h-308zM893 0v311h307v-311h-307z" />
<glyph unicode="&#x202f;" horiz-adv-x="358" />
<glyph unicode="&#x2039;" horiz-adv-x="778" d="M74 422v180l631 348v-272l-306 -166l306 -166v-272z" />
<glyph unicode="&#x203a;" horiz-adv-x="778" d="M74 74v272l305 166l-305 166v272l631 -348v-180z" />
<glyph unicode="&#x205f;" horiz-adv-x="448" />
<glyph unicode="&#x20ac;" horiz-adv-x="1433" d="M72 463v180h143v64v43h-143v180h170q52 221 206.5 352t399.5 131q295 0 514 -174l-109 -244q-96 70 -188 99.5t-164 29.5q-218 0 -297 -194h338l-18 -180h-365q-2 -14 -2 -43q0 -24 4 -64h381l-18 -180h-316q87 -195 293 -195q72 0 164 29.5t188 99.5l109 -243 q-219 -174 -514 -174q-238 0 -392 131t-212 352h-172z" />
<glyph unicode="&#x2122;" horiz-adv-x="1632" d="M66 1231v162h571v-162h-195v-543h-180v543h-196zM764 688v705h256l154 -402h2l133 402h258v-705h-183v410h-4l-149 -410h-141l-152 410h-2v-410h-172z" />
<glyph unicode="&#x25fc;" horiz-adv-x="1024" d="M0 0v1024h1024v-1024h-1024z" />
</font>
</defs>
</svg>
